<svg width="20" height="20" viewBox="0 0 20 20" fill="none" xmlns="http://www.w3.org/2000/svg">
<path d="M1.34603 1.65472C2.30614 0.662293 3.61786 0.373807 4.27584 1.01036L19.1437 15.3942C19.8017 16.0307 19.5568 17.3513 18.5967 18.3437C17.6366 19.3361 16.3249 19.6246 15.6669 18.988L0.798974 4.60425C0.140992 3.96769 0.385916 2.64714 1.34603 1.65472Z" fill="#8B8B8B"/>
<path d="M1.34709 18.3471C0.446989 17.447 0.818149 15.6165 2.1761 14.2585L14.2307 2.20396C15.5886 0.846008 17.4191 0.474851 18.3192 1.37495L18.5955 1.65126C19.4956 2.55136 19.1245 4.38187 17.7665 5.73982L5.71196 17.7944C4.35401 19.1523 2.5235 19.5235 1.6234 18.6234L1.34709 18.3471Z" fill="#8B8B8B"/>
</svg>
